<svg xmlns="http://www.w3.org/2000/svg" width="800" height="597" viewBox="0 0 800 597"><defs><pattern id="grain" width="28" height="14" patternUnits="userSpaceOnUse" patternTransform="rotate(27)"><path d="M0 14H28" stroke="#ffffff" opacity=".09"/></pattern><linearGradient id="glass" x2="1" y2="1"><stop stop-color="#a4d4e6"/><stop offset="1" stop-color="#e4f0ec"/></linearGradient></defs><ellipse cx="400" cy="499" rx="283" ry="36" fill="#000" opacity=".22"/><path d="M120 316L400 160L680 316V341L400 537L120 341Z" fill="#403c38"/><path d="M120 316L400 209L680 316L400 519Z" fill="#cbb698"/><path d="M120 316L400 209L680 316L400 519Z" fill="url(#grain)"/><path d="M120 316V175L400 39V209Z" fill="#e3dfd7"/><path d="M400 39L680 175V316L400 209Z" fill="#bab8b2"/><path d="M145 180L280 114V215L145 280Z" fill="url(#glass)" stroke="#888f90" stroke-width="6"/><path d="M190 159V259M235 137V237" stroke="#c0cdcc" stroke-width="3"/><path d="M302 105L366 74V200L302 232Z" fill="#62574b"/><path d="M313 113L355 92V189L313 211Z" fill="#2b3036"/><circle cx="347" cy="168" r="3" fill="#dabd8a"/><path d="M437 92L620 181V225L437 136Z" fill="#7295a9"/><text x="448" y="117" transform="rotate(26 448 117)" font-family="monospace" font-size="13" letter-spacing="2" fill="#fff">RESEARCH LAB</text><path d="M120 175L400 39L680 175" fill="none" stroke="#efdfc5" stroke-width="5"/><path d="M530 247l28 -14 30 15v75l-28 14-30-15Z" fill="#304553" stroke="#91a4ad" stroke-width="2"/><path d="M536 259l16 -8m-16 20 16-8m-16 20 16-8m-16 20 16-8" stroke="#91dabd" stroke-width="3"/><path d="M578 271l28 -14 30 15v75l-28 14-30-15Z" fill="#304553" stroke="#91a4ad" stroke-width="2"/><path d="M584 283l16 -8m-16 20 16-8m-16 20 16-8m-16 20 16-8" stroke="#91dabd" stroke-width="3"/></svg>